<svg class="icon" xmlns="http://www.w3.org/2000/svg" viewBox="0 0 32 32">
    <path
        d="M27.56 0H4.44A4.44 4.44 0 0 0 0 4.44v23.12A4.44 4.44 0 0 0 4.44 32h23.12A4.44 4.44 0 0 0 32 27.56V4.44A4.44 4.44 0 0 0 27.56 0ZM16 9.78A6.22 6.22 0 1 1 9.78 16 6.22 6.22 0 0 1 16 9.78Zm12.44 17.78a.89.89 0 0 1-.89.89H4.44a.89.89 0 0 1-.89-.89V13.33h3a9.78 9.78 0 1 0 18.8 0h3v14.23Zm0-18.67a.89.89 0 0 1-.89.89h-4.44a.89.89 0 0 1-.89-.89V4.44a.89.89 0 0 1 .89-.89h4.44a.89.89 0 0 1 .89.89v4.45Z">
</path>
    <path
        d="M29.63 0H2.36A2.34 2.34 0 0 0 0 2.31v27.38A2.34 2.34 0 0 0 2.36 32h27.27A2.34 2.34 0 0 0 32 29.69V2.31A2.34 2.34 0 0 0 29.63 0Z"
        style="fill:#007bb5">
</path>
    <path
        d="M4.74 12h4.75v15.27H4.74V12Zm2.38-7.59a2.75 2.75 0 1 1-2.76 2.75 2.75 2.75 0 0 1 2.76-2.75M12.47 12H17v2.09h.07a5 5 0 0 1 4.49-2.47c4.8 0 5.69 3.16 5.69 7.27v8.38h-4.73v-7.43c0-1.77 0-4-2.47-4s-2.85 1.93-2.85 3.92v7.55h-4.73V12Z"
        style="fill:#fff">
</path>
</svg>